<svg viewBox="0 0 40 40" width="40" height="40" fill="none" xmlns="http://www.w3.org/2000/svg">
  <rect width="40" height="40" rx="8" fill="#0F172A"/>
  <path d="M20 3C13.373 3 8 8.373 8 15c0 9 12 22 12 22s12-13 12-22C32 8.373 26.627 3 20 3z" fill="url(#favPinGrad)" opacity="0.95"/>
  <path d="M6 10 Q3 15 6 20" stroke="#06B6D4" stroke-width="2" stroke-linecap="round" fill="none"/>
  <path d="M3.5 7.5 Q0 15 3.5 22.5" stroke="#06B6D4" stroke-width="1.5" stroke-linecap="round" fill="none" opacity="0.5"/>
  <path d="M34 10 Q37 15 34 20" stroke="#06B6D4" stroke-width="2" stroke-linecap="round" fill="none"/>
  <path d="M36.5 7.5 Q40 15 36.5 22.5" stroke="#06B6D4" stroke-width="1.5" stroke-linecap="round" fill="none" opacity="0.5"/>
  <path d="M20 9 L15.5 16.5 H18.5 V21 H21.5 V16.5 H24.5 Z" fill="white"/>
  <defs>
    <linearGradient id="favPinGrad" x1="8" y1="3" x2="32" y2="37" gradientUnits="userSpaceOnUse">
      <stop stop-color="#1E3A8A"/>
      <stop offset="1" stop-color="#2563EB"/>
    </linearGradient>
  </defs>
</svg>
